<svg width="42" height="40" viewBox="0 0 42 40" fill="none" xmlns="http://www.w3.org/2000/svg">
<g id="mdi:twitter">
<path id="Vector" d="M38.5616 10.1045C37.2396 10.6673 35.8145 11.0371 34.338 11.214C35.8489 10.3618 37.0164 9.01112 37.5658 7.38713C36.1408 8.19108 34.5612 8.75386 32.8958 9.07544C31.5395 7.69263 29.6337 6.88867 27.4704 6.88867C23.4357 6.88867 20.1392 9.97587 20.1392 13.7866C20.1392 14.3333 20.2079 14.8639 20.3281 15.3624C14.2159 15.073 8.77337 12.3234 5.15072 8.15893C4.51546 9.17191 4.15491 10.3618 4.15491 11.6159C4.15491 14.0117 5.44259 16.1342 7.43419 17.3401C6.21519 17.3401 5.08204 17.0185 4.08624 16.5362V16.5844C4.08624 19.9289 6.62725 22.7267 9.99237 23.3537C8.91217 23.6318 7.77764 23.6703 6.67876 23.4663C7.14508 24.837 8.05835 26.0364 9.29019 26.8959C10.522 27.7553 12.0105 28.2317 13.5464 28.2579C10.943 30.1882 7.71578 31.2316 4.39528 31.2165C3.81153 31.2165 3.22779 31.1843 2.64404 31.12C5.90615 33.0816 9.78634 34.2233 13.9412 34.2233C27.4704 34.2233 34.9046 23.7075 34.9046 14.5906C34.9046 14.2851 34.9046 13.9957 34.8874 13.6902C36.3296 12.7254 37.5658 11.5034 38.5616 10.1045Z" fill="#485C66"/>
</g>
</svg>
