<svg width="37" height="37" viewBox="0 0 37 37" fill="none" xmlns="http://www.w3.org/2000/svg">
<g id="tabler:search">
<path id="Vector" d="M31.7978 32.2335L22.7191 23.1547M4.56152 15.5891C4.56152 16.98 4.83549 18.3573 5.36778 19.6424C5.90008 20.9275 6.68027 22.0951 7.66382 23.0787C8.64737 24.0622 9.81501 24.8424 11.1001 25.3747C12.3852 25.907 13.7625 26.181 15.1534 26.181C16.5444 26.181 17.9217 25.907 19.2068 25.3747C20.4918 24.8424 21.6595 24.0622 22.643 23.0787C23.6266 22.0951 24.4068 20.9275 24.9391 19.6424C25.4714 18.3573 25.7453 16.98 25.7453 15.5891C25.7453 14.1981 25.4714 12.8208 24.9391 11.5357C24.4068 10.2507 23.6266 9.08301 22.643 8.09946C21.6595 7.11591 20.4918 6.33572 19.2068 5.80342C17.9217 5.27113 16.5444 4.99716 15.1534 4.99716C13.7625 4.99716 12.3852 5.27113 11.1001 5.80342C9.81501 6.33572 8.64737 7.11591 7.66382 8.09946C6.68027 9.08301 5.90008 10.2507 5.36778 11.5357C4.83549 12.8208 4.56152 14.1981 4.56152 15.5891Z" stroke="#E6A4B4" stroke-width="2" stroke-linecap="round" stroke-linejoin="round"/>
</g>
</svg>
