<svg width="36" height="34" viewBox="0 0 36 34" fill="none" xmlns="http://www.w3.org/2000/svg">
<path id="Vector" d="M32.6613 6.39193H3.883C2.26422 6.39193 0.960205 5.01717 0.960205 3.31057C0.960205 1.60398 2.26422 0.229218 3.883 0.229218H32.6613C34.2801 0.229218 35.5841 1.60398 35.5841 3.31057C35.5841 5.01717 34.2801 6.39193 32.6613 6.39193ZM35.5841 17.0582C35.5841 15.3516 34.2801 13.9768 32.6613 13.9768H3.883C2.26422 13.9768 0.960205 15.3516 0.960205 17.0582C0.960205 18.7648 2.26422 20.1395 3.883 20.1395H32.6613C34.2801 20.1395 35.5841 18.7648 35.5841 17.0582ZM35.5841 30.8058C35.5841 29.0992 34.2801 27.7244 32.6613 27.7244H3.883C2.26422 27.7244 0.960205 29.0992 0.960205 30.8058C0.960205 32.5124 2.26422 33.8871 3.883 33.8871H32.6613C34.2801 33.8871 35.5841 32.5124 35.5841 30.8058Z" fill="#E6A4B4"/>
</svg>
