<svg width="39" height="37" viewBox="0 0 39 37" fill="none" xmlns="http://www.w3.org/2000/svg">
<path id="Vector" d="M11.31 0.330078H27.69C33.93 0.330078 39 5.07825 39 10.9222V26.2624C39 29.0716 37.8084 31.7657 35.6874 33.7521C33.5663 35.7385 30.6896 36.8545 27.69 36.8545H11.31C5.07 36.8545 0 32.1063 0 26.2624V10.9222C0 8.11296 1.19159 5.41883 3.31262 3.43243C5.43366 1.44603 8.3104 0.330078 11.31 0.330078ZM10.92 3.98252C9.05818 3.98252 7.27262 4.67518 5.95611 5.90812C4.63961 7.14105 3.9 8.81328 3.9 10.5569V26.6277C3.9 30.2618 7.0395 33.2021 10.92 33.2021H28.08C29.9418 33.2021 31.7274 32.5094 33.0439 31.2765C34.3604 30.0435 35.1 28.3713 35.1 26.6277V10.5569C35.1 6.92273 31.9605 3.98252 28.08 3.98252H10.92ZM29.7375 6.72185C30.384 6.72185 31.004 6.96236 31.4611 7.39046C31.9182 7.81856 32.175 8.3992 32.175 9.00463C32.175 9.61006 31.9182 10.1907 31.4611 10.6188C31.004 11.0469 30.384 11.2874 29.7375 11.2874C29.091 11.2874 28.471 11.0469 28.0139 10.6188C27.5568 10.1907 27.3 9.61006 27.3 9.00463C27.3 8.3992 27.5568 7.81856 28.0139 7.39046C28.471 6.96236 29.091 6.72185 29.7375 6.72185ZM19.5 9.46118C22.0859 9.46118 24.5658 10.4232 26.3943 12.1356C28.2228 13.848 29.25 16.1706 29.25 18.5923C29.25 21.014 28.2228 23.3365 26.3943 25.049C24.5658 26.7614 22.0859 27.7234 19.5 27.7234C16.9141 27.7234 14.4342 26.7614 12.6057 25.049C10.7772 23.3365 9.75 21.014 9.75 18.5923C9.75 16.1706 10.7772 13.848 12.6057 12.1356C14.4342 10.4232 16.9141 9.46118 19.5 9.46118ZM19.5 13.1136C17.9485 13.1136 16.4605 13.6908 15.3634 14.7183C14.2663 15.7457 13.65 17.1393 13.65 18.5923C13.65 20.0453 14.2663 21.4388 15.3634 22.4663C16.4605 23.4937 17.9485 24.0709 19.5 24.0709C21.0515 24.0709 22.5395 23.4937 23.6366 22.4663C24.7337 21.4388 25.35 20.0453 25.35 18.5923C25.35 17.1393 24.7337 15.7457 23.6366 14.7183C22.5395 13.6908 21.0515 13.1136 19.5 13.1136Z" fill="#485C66"/>
</svg>
